<svg width="237" height="63" viewBox="0 0 237 63" fill="none" xmlns="http://www.w3.org/2000/svg">
<path d="M38.1502 47.4413C37.6482 48.7212 36.1001 49.8205 34.7665 49.8243C32.3983 49.8781 31.6051 48.6712 30.9345 47.1338C28.0323 40.5664 25.1647 33.9901 22.3315 27.4048L19.6491 33.4738C22.1131 39.0469 24.374 44.2896 26.7805 49.463C27.4083 50.7675 28.3259 51.9101 29.463 52.8031C32.7509 55.3283 36.5216 55.0516 40.6525 52.1727C39.8516 50.8313 38.9549 49.1056 38.1502 47.4413ZM57.046 35.4455C55.1299 39.8695 54.2026 43.0058 51.911 47.1184C51.4704 47.9102 50.635 49.3208 49.1443 49.6898C48.4721 49.8461 47.7686 49.7966 47.1248 49.5476C46.0212 49.1402 45.1245 48.187 43.013 43.3479C42.5992 42.3985 42.0704 41.1417 41.4802 39.6465C38.9128 33.8235 36.5484 28.5617 34.2683 23.2652C32.6819 19.6023 29.9266 17.5306 25.972 17.5191C22.0173 17.5076 19.2123 19.5024 17.6488 23.2076C16.1965 26.6284 14.6598 30.0184 13.1883 33.4392C12.5522 34.8997 11.6823 37.0713 9.77012 37.2174C9.6475 37.2174 9.71264 37.4711 9.69732 37.7978C9.63984 39.1008 9.67432 40.4037 9.67432 41.7759C13.56 41.7182 15.5105 39.7811 16.9284 37.2251V37.1905L21.8066 25.4369C22.2267 24.3287 23.0651 23.4311 24.1403 22.9385C26.0563 22.1391 28.298 22.9385 29.0606 24.1377C29.6496 25.1762 30.1619 26.2566 30.5934 27.3702C32.7738 32.2938 33.6322 33.1355 38.0659 44.3242C38.3111 44.943 38.9473 46.565 39.9819 48.6482C40.6525 49.9781 41.258 51.035 41.6642 51.723C41.7932 51.9114 41.9326 52.0923 42.0819 52.265C44.0669 54.5289 47.7686 55.1092 50.4472 54.3943C53.7313 53.5142 55.7354 50.8467 56.7011 48.6559C58.1764 45.3158 59.6977 41.995 61.0888 38.6203C61.7939 36.8984 62.5909 35.3879 64.5376 35.0535V30.2682C60.8205 30.445 58.4485 32.2284 57.046 35.4455ZM63.3458 17.6805C61.7134 17.7843 57.2874 18.111 53.0262 20.9552C50.0985 22.9129 47.7507 25.7136 45.9829 29.3573C44.634 32.1324 43.4806 34.9997 42.1508 38.1975C42.8291 39.9694 43.8101 42.4254 44.7719 44.5087C44.8205 44.36 44.878 44.2063 44.9444 44.0474C46.7493 39.8387 48.3511 35.5262 50.4549 31.4751C51.6045 29.2535 53.3979 27.2472 55.2832 25.5598C57.797 23.3114 61.0696 22.5311 64.4801 22.3082V17.6498C64.1774 17.6498 63.8018 17.6805 63.3458 17.6805Z" fill="#F3F3F3"/>
<path d="M75.2148 22.8271H82.0397L83.7718 35.4725C84.063 37.5634 84.2929 40.2308 84.4692 42.7753C85.2778 40.5729 86.2626 38.1361 87.4735 35.4725L93.3174 22.8271H100.257L101.993 35.4725C102.166 36.7486 102.514 40.6959 102.687 42.7753C103.672 40.2808 104.944 37.0906 105.695 35.4725L111.539 22.8271H118.942L104.764 51.4848H98.5213L96.498 38.7242C96.1531 36.0337 95.6894 31.9364 95.6319 30.4835C94.9958 32.1094 93.4324 35.9376 92.2176 38.8395L86.55 51.504H79.8401L75.2148 22.8271Z" fill="#F3F3F3"/>
<path d="M115.586 39.362C115.586 29.557 122.526 22.0659 131.55 22.0659C139.981 22.0659 144.794 27.9235 143.464 36.5677L143.119 38.7163L122.12 38.7739V38.9469C122.12 43.8205 124.492 46.5456 128.887 46.5456C132.129 46.5456 134.731 44.9813 135.946 42.2524H142.655C140.69 48.2291 135.018 52.1726 128.542 52.1726C120.56 52.1803 115.586 47.3105 115.586 39.362ZM122.867 34.3654H137.045C137.681 30.3027 135.309 27.6353 131.144 27.6353C127.385 27.6429 124.204 30.3642 122.874 34.373L122.867 34.3654Z" fill="#F3F3F3"/>
<path d="M145.023 39.2428C145.023 29.1496 151.446 22.0736 160.007 22.0736C164.345 22.0736 168.104 24.1607 169.491 27.2932L172.442 8.32129H179.209L172.384 51.5038H166.077L166.31 47.0952C164.053 50.4046 160.815 52.1995 156.592 52.1995C149.882 52.1803 145.023 46.8915 145.023 39.2428ZM167.989 35.2993C167.989 30.8331 165.441 28.0465 161.16 28.0465C155.964 28.058 151.791 32.7472 151.791 38.8393C151.791 43.2478 154.454 46.142 158.616 46.142C163.823 46.1497 167.989 41.3914 167.989 35.2993Z" fill="#F3F3F3"/>
<path d="M177.875 39.362C177.875 29.557 184.815 22.0659 193.839 22.0659C202.27 22.0659 207.087 27.9235 205.753 36.5677L205.408 38.7163L184.412 38.7739V38.9469C184.412 43.8205 186.784 46.5456 191.18 46.5456C194.418 46.5456 197.02 44.9813 198.235 42.2524H204.945C202.979 48.2291 197.311 52.1726 190.831 52.1726C182.849 52.1803 177.875 47.3105 177.875 39.362ZM185.156 34.3654H199.334C199.971 30.3027 197.598 27.6353 193.433 27.6353C189.685 27.6429 186.493 30.3642 185.164 34.373L185.156 34.3654Z" fill="#F3F3F3"/>
<path d="M220.971 29.2112L218.288 46.5073H223.615L222.687 52.192H215.958C215.298 52.1916 214.645 52.0478 214.045 51.7704C213.445 51.493 212.912 51.0886 212.483 50.585C212.054 50.0814 211.738 49.4905 211.558 48.8529C211.378 48.2154 211.338 47.5463 211.44 46.8917L214.211 29.2112H208.766L209.693 23.5266H215.131L216.51 14.6479H223.278L221.89 23.5266H227.328L226.408 29.2112H220.971Z" fill="#F3F3F3"/>
</svg>
